<svg width="592" height="147" viewBox="0 0 592 147" fill="none" xmlns="http://www.w3.org/2000/svg">
<path d="M160.929 115.95H166.576L156.525 145.658H152.256L147.552 128.716L142.941 145.658H138.63L128.62 115.95H134.268L140.827 136.736L145.49 120.043H149.666L154.328 136.819L160.929 115.95Z" fill="#3C479D"/>
<path d="M181.177 135.565C181.177 132.114 178.586 129.659 175.477 129.659C172.369 129.659 169.83 132.125 169.83 135.565C169.83 139.005 172.379 141.523 175.477 141.523C178.576 141.523 181.177 139.098 181.177 135.565ZM164.784 135.565C164.784 129.182 169.747 125.006 175.477 125.006C181.208 125.006 186.223 129.182 186.223 135.565C186.223 141.948 181.218 146.176 175.477 146.176C169.737 146.176 164.784 141.948 164.784 135.565Z" fill="#3C479D"/>
<path d="M204.097 125.69L203.103 130.436C201.942 129.835 200.906 129.71 200.17 129.71C196.896 129.71 195.082 132.985 195.082 138.632V145.658H190.036V125.514H195.031V129.824C196.108 126.457 198.315 124.996 200.813 124.996C202.025 124.996 203.31 125.255 204.087 125.68" fill="#3C479D"/>
<path d="M226.604 145.658H220.262L212.418 136.518V145.658H207.413V114.561H212.418V131.949L218.2 125.524H224.707L216.511 134.321L226.604 145.658Z" fill="#3C479D"/>
<path d="M253.587 133.845C253.286 131.089 251.12 129.451 248.323 129.451C245.525 129.451 243.452 130.788 242.851 133.845H253.587ZM258.457 137.337H242.841C243.401 140.145 245.556 141.647 248.571 141.647C250.727 141.647 252.84 140.694 254.001 139.057L257.358 141.606C255.504 144.538 251.929 146.176 248.26 146.176C242.261 146.176 237.691 141.865 237.691 135.565C237.691 129.265 242.478 125.006 248.26 125.006C254.042 125.006 258.529 129.099 258.529 135.399C258.529 135.959 258.488 136.611 258.446 137.337" fill="#3C479D"/>
<path d="M278.455 135.565C278.455 132.114 275.606 129.659 272.632 129.659C269.399 129.659 266.933 132.332 266.933 135.565C266.933 138.798 269.389 141.523 272.673 141.523C275.782 141.523 278.445 138.933 278.445 135.565M278.538 125.514H283.533V145.658H278.538V142.507C277.201 144.704 274.518 146.176 271.637 146.176C266.249 146.176 261.928 141.824 261.928 135.565C261.928 129.306 266.073 125.006 271.761 125.006C274.518 125.006 277.201 126.218 278.538 128.322V125.514Z" fill="#3C479D"/>
<path d="M288.092 139.451H292.796C292.796 140.829 294.009 142.124 296.112 142.124C298.102 142.124 299.397 141.129 299.397 139.834C299.397 138.715 298.537 138.197 297.024 137.855L294.351 137.161C289.823 135.959 288.652 133.534 288.652 130.995C288.652 127.845 291.76 124.996 296.154 124.996C299.739 124.996 303.791 126.799 303.749 131.296H298.962C298.962 129.918 297.708 129.047 296.288 129.047C294.734 129.047 293.656 129.949 293.656 131.202C293.656 132.239 294.651 132.85 295.812 133.099L299.045 133.959C303.573 135.119 304.391 137.979 304.391 139.824C304.391 143.927 300.299 146.165 296.205 146.165C292.112 146.165 288.175 143.751 288.092 139.44" fill="#3C479D"/>
<path d="M309.044 125.524H314.039V145.668H309.044V125.524ZM308.267 118.405C308.267 116.633 309.769 115.338 311.541 115.338C313.313 115.338 314.774 116.633 314.774 118.405C314.774 120.177 313.344 121.473 311.541 121.473C309.738 121.473 308.267 120.136 308.267 118.405Z" fill="#3C479D"/>
<path d="M334.659 133.845C334.358 131.089 332.203 129.451 329.395 129.451C326.587 129.451 324.525 130.788 323.914 133.845H334.659ZM339.529 137.337H323.914C324.473 140.145 326.628 141.647 329.654 141.647C331.809 141.647 333.923 140.694 335.084 139.057L338.441 141.606C336.586 144.538 333.011 146.176 329.343 146.176C323.344 146.176 318.774 141.865 318.774 135.565C318.774 129.265 323.561 125.006 329.343 125.006C335.125 125.006 339.612 129.099 339.612 135.399C339.612 135.959 339.571 136.611 339.529 137.337Z" fill="#3C479D"/>
<path d="M358.274 125.69L357.279 130.436C356.119 129.835 355.083 129.71 354.347 129.71C351.073 129.71 349.259 132.985 349.259 138.632V145.658H344.213V125.514H349.207V129.824C350.285 126.457 352.492 124.996 354.989 124.996C356.202 124.996 357.487 125.255 358.264 125.68" fill="#3C479D"/>
<path d="M357.787 142.901C357.787 141.046 359.3 139.71 361.061 139.71C362.823 139.71 364.377 141.046 364.377 142.901C364.377 144.756 362.875 146.093 361.061 146.093C359.248 146.093 357.787 144.756 357.787 142.901Z" fill="#3C479D"/>
<path d="M384.925 140.964H396.479V145.658H379.661V115.95H384.925V140.964Z" fill="#3C479D"/>
<path d="M400.354 125.524H405.349V145.668H400.354V125.524ZM399.577 118.405C399.577 116.633 401.08 115.338 402.851 115.338C404.623 115.338 406.084 116.633 406.084 118.405C406.084 120.177 404.654 121.473 402.851 121.473C401.048 121.473 399.577 120.136 399.577 118.405Z" fill="#3C479D"/>
<path d="M424.715 125.524H430.145L421.648 145.658H417.079L408.665 125.524H414.063L419.41 139.326L424.715 125.524Z" fill="#3C479D"/>
<path d="M447.553 133.845C447.253 131.089 445.087 129.451 442.289 129.451C439.492 129.451 437.419 130.788 436.818 133.845H447.553ZM452.423 137.337H436.808C437.367 140.145 439.523 141.647 442.538 141.647C444.693 141.647 446.807 140.694 447.978 139.057L451.335 141.606C449.481 144.538 445.906 146.176 442.237 146.176C436.238 146.176 431.668 141.865 431.668 135.565C431.668 129.265 436.455 125.006 442.237 125.006C448.02 125.006 452.506 129.099 452.506 135.399C452.506 135.959 452.465 136.611 452.423 137.337Z" fill="#3C479D"/>
<path d="M484.235 135.523C484.235 132.166 481.644 129.659 478.536 129.659C475.645 129.659 472.712 131.99 472.712 135.523C472.712 139.057 475.469 141.523 478.536 141.523C481.603 141.523 484.235 138.891 484.235 135.523ZM489.24 135.565C489.24 142 484.629 146.176 479.323 146.176C476.909 146.176 474.018 145.098 472.64 142.943V145.658H467.635V114.561H472.64V128.198C474.028 126.042 476.826 125.006 479.365 125.006C484.67 125.006 489.24 129.099 489.24 135.565Z" fill="#3C479D"/>
<path d="M508.627 133.845C508.327 131.089 506.171 129.451 503.363 129.451C500.555 129.451 498.493 130.788 497.882 133.845H508.627ZM513.497 137.337H497.882C498.441 140.145 500.597 141.647 503.622 141.647C505.778 141.647 507.891 140.694 509.062 139.057L512.42 141.606C510.565 144.538 506.99 146.176 503.322 146.176C497.333 146.176 492.753 141.865 492.753 135.565C492.753 129.265 497.54 125.006 503.322 125.006C509.104 125.006 513.591 129.099 513.591 135.399C513.591 135.959 513.549 136.611 513.508 137.337" fill="#3C479D"/>
<path d="M528.978 125.524V129.482H524.699V145.658H519.694V129.482H516.078V125.524H519.694V118.105H524.699V125.524H528.978Z" fill="#3C479D"/>
<path d="M543.879 125.524V129.482H539.61V145.658H534.605V129.482H530.988V125.524H534.605V118.105H539.61V125.524H543.879Z" fill="#3C479D"/>
<path d="M561.95 133.845C561.65 131.089 559.484 129.451 556.686 129.451C553.889 129.451 551.816 130.788 551.215 133.845H561.95ZM566.82 137.337H551.205C551.764 140.145 553.92 141.647 556.935 141.647C559.09 141.647 561.204 140.694 562.365 139.057L565.722 141.606C563.867 144.538 560.292 146.176 556.624 146.176C550.635 146.176 546.055 141.865 546.055 135.565C546.055 129.265 550.842 125.006 556.624 125.006C562.406 125.006 566.893 129.099 566.893 135.399C566.893 135.959 566.851 136.611 566.81 137.337" fill="#3C479D"/>
<path d="M585.565 125.69L584.571 130.436C583.41 129.835 582.374 129.71 581.638 129.71C578.364 129.71 576.55 132.985 576.55 138.632V145.658H571.504V125.514H576.509V129.824C577.587 126.457 579.794 124.996 582.291 124.996C583.503 124.996 584.788 125.255 585.565 125.68" fill="#3C479D"/>
<path d="M585.078 142.901C585.078 141.046 586.591 139.71 588.353 139.71C590.114 139.71 591.669 141.046 591.669 142.901C591.669 144.756 590.166 146.093 588.353 146.093C586.539 146.093 585.078 144.756 585.078 142.901Z" fill="#3C479D"/>
<path d="M447.615 57.5595V94.2308H459.532V57.5595C459.532 53.0728 463.179 49.4254 467.666 49.4254H474.142V37.509H467.666C456.61 37.509 447.615 46.5032 447.615 57.5595Z" fill="#3C479D"/>
<path d="M99.2854 69.9318C98.9227 76.9573 93.4516 82.5528 86.4261 82.5528C79.0483 82.5528 73.4529 76.8433 73.4529 69.5795V36.6075H61.5469V69.5795C61.5469 83.3817 70.7069 94.5727 86.4261 94.5727C90.7056 94.5727 96.6638 92.9044 99.2854 88.9772V93.7334H111.191V36.5972H99.2854V69.9215V69.9318Z" fill="#3C479D"/>
<path d="M182.762 35.5299C175.736 35.5299 169.664 38.3898 165.385 43.146C161.095 38.3898 155.862 35.5299 148.837 35.5299C144.671 35.5299 138.599 37.4365 136.692 41.3637V36.6075H124.672V93.7438H136.692V58.6268C136.931 52.5547 141.811 47.6742 147.997 47.6742C154.183 47.6742 159.302 52.679 159.302 58.9791V93.7334H171.447V58.9791C171.447 52.6687 176.441 47.6742 182.752 47.6742C189.062 47.6742 194.057 52.679 194.057 58.9791V93.7334H206.077V58.9791C206.077 46.1199 195.6 35.5299 182.752 35.5299" fill="#3C479D"/>
<path d="M244.022 82.4284C234.386 82.4284 226.521 74.688 226.521 65.0513C226.521 55.4146 234.375 47.6742 244.022 47.6742C253.669 47.6742 261.524 55.4146 261.524 65.0513C261.524 74.688 253.669 82.4284 244.022 82.4284ZM261.524 43.2703C257.71 38.5038 250.457 35.6542 244.022 35.6542C227.837 35.6542 214.615 48.8658 214.615 65.0513C214.615 81.2368 227.826 94.4587 244.022 94.4587C250.447 94.4587 257.71 91.5988 261.524 86.8426V93.7438H273.544V36.4935H261.524V43.2806V43.2703Z" fill="#3C479D"/>
<path d="M408.53 83.5682C398.883 83.5682 391.028 75.8278 391.028 66.1911C391.028 56.5544 398.883 48.7 408.53 48.7C418.177 48.7 426.031 56.4404 426.031 66.1911C426.031 75.9418 418.177 83.5682 408.53 83.5682ZM408.53 36.6697C392.344 36.6697 379.122 50.0056 379.122 66.1911C379.122 82.3766 392.334 95.5986 408.53 95.5986C424.726 95.5986 438.051 82.387 438.051 66.1911C438.051 49.9953 424.726 36.6697 408.53 36.6697Z" fill="#3C479D"/>
<path d="M50.3144 93.6194V57.8808C50.3144 43.9542 39.1234 32.8875 25.4352 32.8875C20.679 32.8875 15.5602 34.6698 12.5759 38.3587V0.454376H0.669922V93.6194H12.5759V57.4145C12.9282 50.389 18.4097 44.7935 25.4352 44.7935C32.4606 44.7935 38.4084 50.5134 38.4084 57.8808V93.6194C38.4084 104.676 47.4027 113.67 58.459 113.67V101.754C53.9722 101.754 50.3248 98.1062 50.3248 93.6194" fill="#3C479D"/>
<path d="M352.596 31.7374V36.4935H343.943V47.7985H352.109V93.7438H352.078C352.078 98.2305 348.43 101.878 343.943 101.878C339.457 101.878 335.809 98.2305 335.809 93.7438H335.799V60.8858C335.799 46.9592 324.608 35.8925 310.92 35.8925C306.153 35.8925 301.045 37.1982 298.06 41.3637V36.6075H286.154V93.7438H298.06V60.4195C298.423 53.394 303.894 47.7985 310.92 47.7985C317.945 47.7985 323.893 53.508 323.893 60.8858V93.7438C323.893 104.8 332.887 113.794 343.943 113.794C355 113.794 363.994 104.8 363.994 93.7438V47.7985H373.91V36.4935H364.512V31.7374C364.512 27.2506 368.159 23.6032 372.657 23.6032H379.133V11.6868H372.657C361.6 11.6868 352.606 20.6811 352.606 31.7374" fill="#3C479D"/>
<path d="M509.29 47.9643C514.886 47.9643 519.766 50.2232 522.979 53.7981L530.719 46.5343C525.838 40.7005 518.098 37.0116 509.062 37.0116C492.991 37.0116 479.064 48.5653 479.064 66.1807C479.064 83.7962 492.991 95.4639 509.062 95.4639C518.108 95.4639 525.838 91.7853 530.719 85.9515L522.979 78.6877C519.766 82.2626 514.886 84.5216 509.29 84.5216C498.939 84.5216 490.721 76.7811 490.721 66.1911C490.721 55.6011 498.939 47.985 509.29 47.985" fill="#3C479D"/>
<path d="M547.599 61.5386C549.267 52.2438 555.692 47.84 564.261 47.84C572.83 47.84 579.141 52.8448 580.332 61.5386H547.599ZM592 65.9424C592 48.441 579.98 37.0116 564.147 37.0116C548.314 37.0116 535.454 48.4409 535.454 66.0564C535.454 83.6719 548.075 95.4535 564.147 95.4535C574.747 95.4535 584.747 90.459 589.617 81.1746L580.332 76.5324C577.245 81.6409 571.172 84.6252 564.624 84.6252C555.692 84.6252 549.029 79.983 547.485 70.9369H591.762C591.876 69.1443 592 67.4864 592 65.9321" fill="#3C479D"/>
</svg>
